HIERARCHY
ROOT Hips
{
	OFFSET -0.001795 -0.223333 0.028219
	CHANNELS 6 Xposition Yposition Zposition Zrotation Yrotation Xrotation 
	JOINT LeftUpLeg
	{
		OFFSET 0.069520 -0.091406 -0.006815
		CHANNELS 3 Zrotation Yrotation Xrotation
		JOINT LeftLeg
		{
			OFFSET 0.034277 -0.375199 -0.004496
			CHANNELS 3 Zrotation Yrotation Xrotation
			JOINT LeftFoot
			{
				OFFSET -0.013596 -0.397961 -0.043693
				CHANNELS 3 Zrotation Yrotation Xrotation
				JOINT LeftToe
				{
					OFFSET 0.026358 -0.055791 0.119288
					CHANNELS 3 Zrotation Yrotation Xrotation
					End Site
					{
						OFFSET 0.000000 0.000000 0.000000
					}
				}
			}
		}
	}
	JOINT RightUpLeg
	{
		OFFSET -0.067670 -0.090522 -0.004320
		CHANNELS 3 Zrotation Yrotation Xrotation
		JOINT RightLeg
		{
			OFFSET -0.038290 -0.382569 -0.008850
			CHANNELS 3 Zrotation Yrotation Xrotation
			JOINT RightFoot
			{
				OFFSET 0.015774 -0.398415 -0.042312
				CHANNELS 3 Zrotation Yrotation Xrotation
				JOINT RightToe
				{
					OFFSET -0.025372 -0.048144 0.123348
					CHANNELS 3 Zrotation Yrotation Xrotation
					End Site
					{
						OFFSET 0.000000 0.000000 0.000000
					}
				}
			}
		}
	}
	JOINT Spine
	{
		OFFSET -0.002533 0.108963 -0.026696
		CHANNELS 3 Zrotation Yrotation Xrotation
		JOINT Spine1
		{
			OFFSET 0.005487 0.135180 0.001092
			CHANNELS 3 Zrotation Yrotation Xrotation
			JOINT Spine2
			{
				OFFSET 0.001457 0.052922 0.025425
				CHANNELS 3 Zrotation Yrotation Xrotation
				JOINT Neck
				{
					OFFSET -0.002778 0.213870 -0.042857
					CHANNELS 3 Zrotation Yrotation Xrotation
					JOINT Head
					{
						OFFSET 0.005152 0.064970 0.051349
						CHANNELS 3 Zrotation Yrotation Xrotation
						End Site
						{
							OFFSET 0.000000 0.000000 0.000000
						}
					}
				}
				JOINT LeftShoulder
				{
					OFFSET 0.078845 0.121749 -0.034090
					CHANNELS 3 Zrotation Yrotation Xrotation
					JOINT LeftArm
					{
						OFFSET 0.090977 0.030469 -0.008868
						CHANNELS 3 Zrotation Yrotation Xrotation
						JOINT LeftForeArm
						{
							OFFSET 0.259612 -0.012772 -0.027456
							CHANNELS 3 Zrotation Yrotation Xrotation
							JOINT LeftHand
							{
								OFFSET 0.249234 0.008986 -0.001171
								CHANNELS 3 Zrotation Yrotation Xrotation
								End Site
								{
									OFFSET 0.000000 0.000000 0.000000
								}
							}
						}
					}
				}
				JOINT RightShoulder
				{
					OFFSET -0.081759 0.118833 -0.038615
					CHANNELS 3 Zrotation Yrotation Xrotation
					JOINT RightArm
					{
						OFFSET -0.096012 0.032551 -0.009143
						CHANNELS 3 Zrotation Yrotation Xrotation
						JOINT RightForeArm
						{
							OFFSET -0.253742 -0.013329 -0.021401
							CHANNELS 3 Zrotation Yrotation Xrotation
							JOINT RightHand
							{
								OFFSET -0.255298 0.007772 -0.005559
								CHANNELS 3 Zrotation Yrotation Xrotation
								End Site
								{
									OFFSET 0.000000 0.000000 0.000000
								}
							}
						}
					}
				}
			}
		}
	}
}
MOTION
Frames: 13
Frame Time: 0.050000
0.000000 0.940535 0.000000 -0.319344 5.160223 15.135079 6.176934 -1.158622 -18.987284 -4.162723 0.379773 -1.680450 2.317851 9.383142 13.344921 0.000000 0.000000 0.000000 -4.391339 1.416870 -23.142659 3.489712 -0.375158 5.495118 -6.093383 -15.881967 12.689653 0.000000 0.000000 0.000000 1.519993 -2.727643 34.652033 4.621752 -0.578519 -19.888527 3.479299 3.489391 24.309979 -2.380423 3.835592 -34.532424 0.000000 0.000000 0.000000 -9.949430 -34.296996 14.462883 -32.717700 -63.404413 11.540182 13.743414 -15.150069 -1.131120 0.000000 0.000000 0.000000 -7.930338 37.571287 11.162253 17.792470 55.643993 4.749402 -10.895141 3.221278 -0.045021 0.000000 0.000000 0.000000 
-0.000009 0.943038 0.002316 -1.508480 3.553992 14.038252 6.735233 -0.939777 -17.075946 -2.752543 0.290943 -2.537682 1.988241 8.661426 13.469384 0.000000 0.000000 0.000000 -3.460533 1.592794 -21.976340 4.800062 -0.553199 4.463891 -6.037833 -16.071791 14.129730 0.000000 0.000000 0.000000 1.832220 -2.614913 34.114246 4.969457 -0.691567 -20.231024 3.640482 4.537901 24.286723 -1.619103 3.560010 -35.650865 0.000000 0.000000 0.000000 -11.697288 -32.744940 14.029625 -39.045215 -63.936943 15.395029 10.742927 -17.527429 -0.868932 0.000000 0.000000 0.000000 -8.541717 38.052840 11.045321 19.291616 58.759372 6.159455 -11.890221 -1.270027 0.324730 0.000000 0.000000 0.000000 
0.000091 0.943577 0.005083 -1.112262 3.530253 13.204401 6.239868 -0.929260 -15.896782 -3.227297 0.319513 -1.340134 2.553858 9.215522 12.140642 0.000000 0.000000 0.000000 -4.609919 1.366938 -20.942987 5.870164 -0.732618 5.276656 -6.693273 -17.218222 14.258559 0.000000 0.000000 0.000000 2.120388 -2.635570 33.403411 4.105289 -0.371499 -21.848463 3.347900 3.833218 23.821125 -1.965269 3.588027 -33.366404 0.000000 0.000000 0.000000 -15.744031 -31.332593 14.355196 -44.907159 -62.091953 18.076657 6.435467 -20.705447 -0.244184 0.000000 0.000000 0.000000 -6.127761 37.343760 11.687588 18.431337 57.467619 5.177941 -11.509265 0.551970 0.166522 0.000000 0.000000 0.000000 
0.000308 0.946585 0.008273 -1.359393 2.726516 12.065389 6.143501 -0.836507 -14.376034 -2.633712 0.282187 -1.981174 2.567817 9.060272 11.821167 0.000000 0.000000 0.000000 -4.166596 1.363681 -19.271153 5.479602 -0.648356 4.668575 -6.301678 -16.652820 15.029399 0.000000 0.000000 0.000000 1.765653 -2.286935 31.878147 4.343346 -0.509743 -20.917742 3.451699 4.206463 23.306480 -1.239669 3.278354 -33.947819 0.000000 0.000000 0.000000 -15.635730 -29.518537 13.256637 -54.179038 -57.581870 20.692502 4.835232 -28.922580 0.102972 0.000000 0.000000 0.000000 -6.111780 36.862281 11.465568 16.125480 56.086666 3.903409 -13.579141 0.895679 0.177998 0.000000 0.000000 0.000000 
0.000255 0.947848 0.012428 -0.839254 2.763237 10.854890 5.176045 -0.809465 -12.528454 -2.525544 0.274795 -2.037641 2.711672 9.259475 11.675242 0.000000 0.000000 0.000000 -4.967243 1.170655 -17.747807 5.650791 -0.682396 4.921379 -6.058769 -16.185387 14.692513 0.000000 0.000000 0.000000 2.229031 -2.268645 30.061750 3.996921 -0.391025 -21.507908 2.749995 3.219783 24.405232 -0.778744 2.976464 -34.515347 0.000000 0.000000 0.000000 -17.118378 -28.413658 13.118168 -54.119146 -51.049638 16.762357 -1.678073 -39.007953 2.520331 0.000000 0.000000 0.000000 -4.111380 35.676587 11.597332 14.741231 52.925866 2.574181 -15.944369 5.077514 -0.258904 0.000000 0.000000 0.000000 
0.000202 0.949795 0.016999 -0.504614 3.098407 10.134498 4.553534 -0.808196 -11.800680 -2.564264 0.266536 -1.150346 2.764041 9.072119 10.437838 0.000000 0.000000 0.000000 -5.662293 1.005848 -16.263513 5.811557 -0.714663 4.836240 -5.522373 -15.147285 14.158916 0.000000 0.000000 0.000000 2.384407 -2.179243 28.261760 3.599056 -0.282090 -21.697356 2.858489 2.944043 24.982698 -0.637232 2.900258 -34.088520 0.000000 0.000000 0.000000 -17.745064 -26.499967 12.145364 -53.611368 -43.677853 12.407752 -17.393576 -50.691685 10.999723 0.000000 0.000000 0.000000 -4.066648 33.161804 10.695845 16.544925 47.675482 2.599040 -19.862807 12.844011 -1.449233 0.000000 0.000000 0.000000 
-0.000242 0.951629 0.022307 -0.477771 4.105384 8.965058 3.946201 -0.750864 -10.237729 -1.688045 0.189255 -1.300386 2.147717 8.204835 10.628470 0.000000 0.000000 0.000000 -5.720317 0.866949 -14.111584 5.695036 -0.709159 4.286198 -5.741003 -15.387395 14.017371 0.000000 0.000000 0.000000 3.021066 -2.274536 26.638659 3.538970 -0.243282 -21.926596 2.424848 2.791290 25.234874 0.241688 2.545208 -33.590374 0.000000 0.000000 0.000000 -19.119713 -23.257685 10.394832 -50.094317 -34.886650 7.006673 -46.674037 -57.567856 30.019848 0.000000 0.000000 0.000000 -1.674846 29.690665 10.225421 18.921644 40.367377 2.269830 -20.718566 23.751819 -3.133266 0.000000 0.000000 0.000000 
-0.001089 0.953598 0.028000 -0.281914 5.367345 8.534357 3.477561 -0.719893 -9.318819 -1.619168 0.188605 -1.770316 1.812427 7.667602 10.262212 0.000000 0.000000 0.000000 -6.017991 0.737970 -12.397624 5.665631 -0.714458 3.478047 -5.730441 -15.181885 13.585890 0.000000 0.000000 0.000000 3.528286 -2.271368 24.508024 3.653804 -0.234314 -22.238672 1.955869 2.514601 25.926058 1.110658 2.119938 -31.879529 0.000000 0.000000 0.000000 -19.147614 -19.777079 8.320893 -47.330357 -27.373930 3.204494 -74.516630 -57.203087 48.719193 0.000000 0.000000 0.000000 -0.542864 25.155821 8.956825 23.837984 32.035363 1.946699 -18.907345 37.982822 -4.537367 0.000000 0.000000 0.000000 
-0.002219 0.955373 0.033940 -0.124448 6.851052 8.069397 3.102734 -0.655748 -8.110814 -0.889854 0.140290 -2.236900 1.113940 6.693589 10.362914 0.000000 0.000000 0.000000 -5.965960 0.644388 -10.865894 5.211393 -0.660526 2.710703 -5.385039 -14.344021 13.127508 0.000000 0.000000 0.000000 4.171937 -2.229441 22.002243 3.667063 -0.241444 -21.671000 1.950479 1.878131 26.118031 1.031750 2.082201 -29.786293 0.000000 0.000000 0.000000 -19.566224 -15.844312 6.078313 -44.293732 -20.017172 0.139644 -93.572175 -52.632312 59.085265 0.000000 0.000000 0.000000 0.768382 20.440414 7.572020 28.078239 21.648418 0.394456 -13.569577 51.933925 -3.672672 0.000000 0.000000 0.000000 
-0.003410 0.955812 0.039091 0.096592 8.649508 7.752127 3.183842 -0.605659 -7.299771 -1.032782 0.149918 -2.398698 0.510288 6.064816 10.863198 0.000000 0.000000 0.000000 -6.080460 0.545852 -9.528667 4.677400 -0.599990 1.990103 -5.276281 -13.910941 12.999754 0.000000 0.000000 0.000000 4.135478 -2.049447 19.896504 4.468647 -0.410392 -21.741935 1.833595 1.709718 27.029861 1.461884 1.913984 -28.215127 0.000000 0.000000 0.000000 -18.964919 -12.516655 3.977497 -43.455305 -13.254515 -2.234940 -104.527948 -46.884222 61.431975 0.000000 0.000000 0.000000 1.203569 16.147478 6.119441 30.709685 12.084897 -1.623934 1.147669 62.276328 4.589296 0.000000 0.000000 0.000000 
-0.004497 0.955958 0.042556 -0.139137 9.382451 7.682227 3.472013 -0.585882 -7.004579 -1.032207 0.146142 -2.326651 0.642965 6.208027 10.474423 0.000000 0.000000 0.000000 -5.484163 0.552860 -8.990342 4.304056 -0.552946 1.798258 -5.449622 -14.136742 12.586515 0.000000 0.000000 0.000000 4.407963 -1.989964 18.659259 4.812266 -0.503765 -21.434092 1.997283 1.701457 27.145698 2.137196 1.547515 -27.254658 0.000000 0.000000 0.000000 -18.176564 -9.487041 2.259402 -43.171165 -8.022244 -3.964800 -110.106300 -41.907881 59.732150 0.000000 0.000000 0.000000 1.180135 12.589747 4.805330 32.959128 4.735173 -3.361853 20.825741 66.164337 18.077189 0.000000 0.000000 0.000000 
-0.005408 0.955727 0.043987 0.178100 10.051273 7.562414 3.520210 -0.589772 -7.022786 -1.619145 0.177487 -2.093674 0.076517 5.381763 10.575257 0.000000 0.000000 0.000000 -5.641918 0.496974 -8.192372 4.059536 -0.524029 1.560027 -5.314805 -13.799357 12.310958 0.000000 0.000000 0.000000 4.180315 -1.875011 17.944420 5.530438 -0.649014 -21.896092 2.299760 1.901027 27.732824 1.343535 2.070561 -26.944573 0.000000 0.000000 0.000000 -17.926298 -7.181830 0.898493 -43.059227 -4.244490 -5.217420 -113.389552 -38.283036 57.313336 0.000000 0.000000 0.000000 1.533890 10.459167 4.077924 35.424967 1.264789 -4.442904 31.329589 64.887591 24.847837 0.000000 0.000000 0.000000 
-0.005948 0.955761 0.043693 0.800184 10.200356 7.654521 3.084833 -0.572244 -6.708780 -2.356862 0.231693 -2.823026 0.251228 5.977314 11.333864 0.000000 0.000000 0.000000 -6.290822 0.456166 -8.307966 4.083599 -0.532816 2.109567 -5.481598 -14.094031 12.111244 0.000000 0.000000 0.000000 3.990249 -1.781211 17.456515 6.397416 -0.890290 -21.588119 2.304954 2.347082 27.432522 1.890813 1.832142 -26.638488 0.000000 0.000000 0.000000 -18.060925 -6.668719 0.451267 -43.801085 -2.483678 -5.823198 -113.154805 -36.081730 53.585905 0.000000 0.000000 0.000000 2.005123 10.256204 4.095899 37.481315 1.022462 -4.696175 27.420226 63.502894 21.826858 0.000000 0.000000 0.000000 
